PathFileType	4	(X/Y/Z)	5_1_21_p0_0-205_filt_butterworth.trc
DataRate	CameraRate	NumFrames	NumMarkers	Units	OrigDataRate	OrigDataStartFrame	OrigNumFrames
59.0	59.0	5	27	m	59.0	102	205
Frame#	Time	RHip			RKnee			RAnkle			RBigToe			RSmallToe			RHeel			LHip			LKnee			LAnkle			LBigToe			LSmallToe			LHeel			Neck			Head			Nose			RShoulder			RElbow			RWrist			RThumb			RIndex			RPinky			LShoulder			LElbow			LWrist			LThumb			LIndex			LPinky			
		X1	Y1	Z1	X2	Y2	Z2	X3	Y3	Z3	X4	Y4	Z4	X5	Y5	Z5	X6	Y6	Z6	X7	Y7	Z7	X8	Y8	Z8	X9	Y9	Z9	X10	Y10	Z10	X11	Y11	Z11	X12	Y12	Z12	X13	Y13	Z13	X14	Y14	Z14	X15	Y15	Z15	X16	Y16	Z16	X17	Y17	Z17	X18	Y18	Z18	X19	Y19	Z19	X20	Y20	Z20	X21	Y21	Z21	X22	Y22	Z22	X23	Y23	Z23	X24	Y24	Z24	X25	Y25	Z25	X26	Y26	Z26	X27	Y27	Z27	
102	1.728813559322034	0.37034633003531725	0.5294119467856753	0.8107231677480404	0.39430964298898474	0.6008217053496983	1.2830685985313306	0.36182197293058416	0.7879670646611039	1.7053719994421024	0.37420971112192997	0.5060867236832365	1.6474764149082934	0.41576950858361206	0.5831833867063261	1.6630972843248206	0.350789986479122	0.8582070804219539	1.7504314295745171	0.166817476083648	0.48598763020953967	0.8338437641232428	0.1979000613166499	0.5974453624935108	1.2902184575042877	0.2216647262287369	0.7742904650934839	1.708271910492581	0.22727434918314868	0.48828043300222984	1.6552825170254557	0.17062192589381092	0.6001534415515949	1.6910915906789483	0.2249707769652396	0.8459063111128355	1.7579637423593406	0.2240612966130235	0.4269161143253053	0.3079402518295083	0.2435613411276825	0.32259682708391263	0.06600636229786343	0.24007351987264153	0.2831942498578238	0.2144078324399596	0.37227635718594326	0.42932876287750776	0.3736481397946763	0.42137260211464866	0.44144731594808134	0.6280806717457506	0.3503082217924632	0.3681528938127577	0.8634581944818135	0.29577983378914313	0.34792926122660234	0.9298363541754829	0.2940890605147586	0.3701722228332469	0.9652974354555903	0.2852972648226671	0.36771785406932944	0.9586112154001569	0.08905996224253146	0.42129491930254453	0.3941344991091475	0.0924582995223012	0.400593874963852	0.6583218455240841	0.21291090566493837	0.34927267480424096	0.8425014582623472	0.29445912067404084	0.345156925882082	0.8928247172855497	0.2987580263557574	0.35406251332189786	0.9330689959704777	0.2679834092927554	0.35932553882167395	0.951238708346762
103	1.7457627118644068	0.37046553355042877	0.5294741377922453	0.8109170252362583	0.394541129532538	0.599619223451129	1.2810575712551717	0.36183260794748	0.7879645838560071	1.7053661761639918	0.37408508410650537	0.5063935572183359	1.6469979940494426	0.4160537035662969	0.5814724980977597	1.6623305996692517	0.3508078719927901	0.8582303538225479	1.7504496037829727	0.16698107283913544	0.4866552907642339	0.8340309911639278	0.19839479958966666	0.5973171811783216	1.2908188357651742	0.22158426214692434	0.7749224476776353	1.7089432852865374	0.22726955661522374	0.4880194311842403	1.6552738831382352	0.17061554687756586	0.6001412528844838	1.6910446753805426	0.224969813600075	0.8460305660564373	1.7580085695576837	0.22404862964718122	0.4269413339034655	0.3079500092471847	0.24359604360552167	0.32256315963764326	0.06603114497629765	0.24008773144167866	0.2833109906179636	0.2147922856118603	0.37228564090342553	0.4292121245056506	0.3736433612178395	0.421263251353455	0.4410406902258266	0.6270635035790555	0.3521131295721173	0.36360512532674794	0.8635867174375054	0.29600475997825904	0.34831294194541235	0.9308394572654439	0.2940712260554028	0.37032499641514505	0.9652088646181662	0.28546954402160046	0.3680568016126813	0.9581771253031575	0.08905889898666	0.4213430136765008	0.39416088218664447	0.09223384511049698	0.4004690447586543	0.6582660279782163	0.2126428376667068	0.3499284465856376	0.8429457327464134	0.2946639581451042	0.34208680052022367	0.8909255590841516	0.29872189802446153	0.3543821905036358	0.9331624341745722	0.26801446067629875	0.35956090050392614	0.9513128247239394
104	1.7627118644067796	0.37047354155280104	0.5295103991162703	0.8109655902764139	0.3946472728655419	0.5990316122824788	1.280282899236453	0.36184372922879554	0.7879382016385954	1.7053682305931113	0.37385835534493944	0.5069996118026585	1.645976195838792	0.4174531716173421	0.5805726214642262	1.6616995667594332	0.35079015375047345	0.8581775887135332	1.7504424620329182	0.16702280284944807	0.4869680295694606	0.8337934320373213	0.1979941310760178	0.5981960719732693	1.2915593577073912	0.22144751188091844	0.7760274984922196	1.7102973968830635	0.22729751113480312	0.4878132531983232	1.6552104676538857	0.17071595103162573	0.5998813961490094	1.6901119297104852	0.2249636036476251	0.8462167056862009	1.7580194397275362	0.224038872335718	0.42696571224497565	0.30795356815738095	0.2431281070405464	0.32367398857681196	0.06597434747997699	0.24012421699901781	0.28357731012810794	0.21486609990557004	0.37227518239788443	0.4292152578843159	0.3736041450073989	0.42102840385666873	0.4405195868963403	0.6257467256302254	0.3535405123494338	0.36007455865696897	0.8645743980597889	0.296375059076888	0.3491437912066852	0.9335902457854179	0.29439159203373777	0.3695219940089354	0.9654030022373489	0.28638175857323067	0.3692087569617698	0.9601225720018537	0.08905478650577436	0.4213778963358741	0.39418775307596765	0.09205152030285943	0.4007794123763301	0.6589721576537626	0.21220402207086625	0.35059879967423463	0.8440906376685259	0.29526082862946335	0.33780355583657046	0.8890750243208582	0.2988328550234693	0.3540910789884498	0.9338268040213425	0.268152327243531	0.3598063423023738	0.9524713686593086
105	1.7796610169491525	0.3700168257121199	0.5294120583307033	0.8103461033665367	0.39484835375005867	0.6004317941270562	1.2811228727125776	0.36184593845873614	0.7878870688596352	1.7053492027040578	0.37360021657780185	0.5075875282558399	1.6446455001310611	0.41906839371746457	0.5806554832137791	1.6614131508557857	0.3507084104171149	0.858030885239082	1.7503985101101476	0.16693430714137258	0.4870441383481734	0.8325896865096305	0.1962848905913971	0.6007059087703666	1.2922156652153325	0.22145804223529722	0.7768046584949788	1.7116590278882828	0.22735182421177147	0.4876596760064567	1.6550790986288286	0.17093824444083874	0.5993067238231022	1.6881119088304677	0.2249513694373747	0.8464866784537015	1.7579862877406973	0.2240329719925064	0.42696773234129337	0.30798716212372756	0.24184989950150287	0.32660162942765264	0.06577308838506468	0.24018103365901677	0.2839748151828208	0.21488254670955087	0.37227462749632334	0.4292128499172413	0.3732935317595528	0.42050853813296657	0.44012887634319176	0.6247458203348853	0.3544227478466744	0.35881085293208037	0.8655744188648828	0.29623094558172136	0.3491931610654338	0.9363329620668304	0.2950433566917791	0.3667177275793049	0.9659645580054999	0.28778810036594227	0.36940549717304916	0.9635791864939498	0.08904821227377936	0.42138615622627756	0.3942153740252423	0.09254390314508083	0.4014413820876864	0.6596096273774671	0.21196363748785926	0.34954475568333704	0.8456379892629498	0.29628110412611025	0.333204659789427	0.8881332541608795	0.29937408891774503	0.3512238950050119	0.935121548289019	0.26844064710373094	0.35922099503935107	0.9551731936638466
106	1.7966101694915255	0.36886851061965775	0.5289945998126423	0.8086941151393102	0.3953455721916151	0.6044443365829506	1.2821914918917212	0.36183859808543045	0.7878161713181121	1.7052606721024546	0.3734265254366834	0.507682484558684	1.6435846608041147	0.4205135001924476	0.5820738935067328	1.6617634163526076	0.3505444822362941	0.8578620855012871	1.75032640297523	0.16683179264567444	0.4869438206468151	0.8304965565907807	0.1940640972081157	0.6050283114132449	1.2929432507414536	0.22208235556882988	0.7756927656165777	1.7114685834254983	0.22739984995657853	0.4875075672849242	1.654906498331103	0.17122459421561406	0.5985696133356915	1.685736960137996	0.22494094069056056	0.8467609399620735	1.7579038561523537	0.22404166098157474	0.42690986699980155	0.3081293004795151	0.24013526274445357	0.3304837068264299	0.0654832536989026	0.24026788937215343	0.28428843420204114	0.21484014167002646	0.3723335934145231	0.429043229766828	0.37256666570675734	0.4195082888369956	0.439874104986419	0.6243167642845007	0.3555565030282238	0.3590893761092846	0.8660778466330546	0.2947764344719671	0.3466978197202132	0.9378049548238295	0.2954762874214209	0.36159449571598784	0.9667277559941441	0.289285664499839	0.3666784300626836	0.9665856410387291	0.08903738330154064	0.4213809612294114	0.3942429516680401	0.0944724258151237	0.4023340323172039	0.6597540197321426	0.21205522663827514	0.3441732129288756	0.8473376750590021	0.29701548403951905	0.32802937617469696	0.8887706997377555	0.30026112311053127	0.34376936813264125	0.9368274505169121	0.2689410129286689	0.35630711070821813	0.9590375152444446
